<svg width="186" height="20" viewBox="0 0 186 20" fill="none" xmlns="http://www.w3.org/2000/svg">
<path d="M178.079 19.8854C176.399 19.8854 175.051 19.4422 174.035 18.556C173.02 17.6697 172.512 16.5065 172.512 15.0663H176.223C176.223 15.5648 176.39 15.971 176.722 16.2849C177.073 16.5803 177.525 16.7281 178.079 16.7281H180.572C181.679 16.7281 182.233 16.4234 182.233 15.8141V15.3433C182.233 15.1586 182.141 14.9925 181.956 14.8447C181.772 14.6786 181.523 14.5678 181.209 14.5124L176.417 13.6815C175.291 13.4969 174.396 13.0999 173.731 12.4906C173.085 11.8628 172.761 11.1335 172.761 10.3026V9.38869C172.761 8.207 173.242 7.28381 174.202 6.61912C175.18 5.95442 176.537 5.62207 178.273 5.62207H180.433C181.984 5.62207 183.23 6.03751 184.172 6.86838C185.132 7.68079 185.612 8.76092 185.612 10.1088H181.901C181.901 9.70258 181.763 9.37946 181.486 9.13943C181.227 8.8994 180.876 8.77938 180.433 8.77938H178.328C177.128 8.77938 176.528 9.05634 176.528 9.61026V10.0534C176.528 10.2565 176.602 10.4319 176.75 10.5796C176.916 10.7089 177.147 10.8012 177.442 10.8566L182.483 11.7705C183.535 11.9552 184.384 12.3521 185.031 12.9614C185.677 13.5523 186 14.2262 186 14.9832V15.9803C186 17.1804 185.501 18.1313 184.504 18.8329C183.526 19.5346 182.215 19.8854 180.572 19.8854H178.079Z" fill="#164070"/>
<path d="M162.538 19.8854C161.375 19.8854 160.341 19.673 159.436 19.2484C158.55 18.8052 157.858 18.1959 157.359 17.4205C156.861 16.6265 156.611 15.7218 156.611 14.7063V11.1335C156.611 10.0442 156.861 9.08404 157.359 8.25316C157.858 7.42229 158.55 6.77606 159.436 6.31446C160.341 5.85287 161.375 5.62207 162.538 5.62207H164.754C166.526 5.62207 167.948 6.12059 169.019 7.11764C170.09 8.11469 170.625 9.44408 170.625 11.1058V14.0416H160.378V14.7063C160.378 15.3156 160.572 15.8049 160.96 16.1741C161.347 16.5434 161.874 16.7281 162.538 16.7281H164.698C165.345 16.7281 165.862 16.5896 166.249 16.3126C166.656 16.0172 166.859 15.6387 166.859 15.1771H170.57C170.57 16.1003 170.321 16.9219 169.822 17.642C169.324 18.3621 168.622 18.916 167.717 19.3038C166.831 19.6915 165.806 19.8854 164.643 19.8854H162.538ZM166.914 11.3274V11.1058C166.914 10.3857 166.72 9.81336 166.333 9.38869C165.945 8.94556 165.428 8.72399 164.782 8.72399H162.538C161.874 8.72399 161.338 8.95479 160.932 9.41639C160.526 9.87798 160.323 10.4873 160.323 11.2443V11.3274H166.914Z" fill="#164070"/>
<path d="M151.568 4.5421C150.848 4.5421 150.267 4.339 149.824 3.93279C149.399 3.50813 149.187 2.95421 149.187 2.27105C149.187 1.58789 149.399 1.04321 149.824 0.637002C150.267 0.212334 150.848 0 151.568 0C152.288 0 152.861 0.212334 153.285 0.637002C153.729 1.04321 153.95 1.58789 153.95 2.27105C153.95 2.95421 153.729 3.50813 153.285 3.93279C152.861 4.339 152.288 4.5421 151.568 4.5421ZM149.685 5.8438H153.452V19.664H149.685V5.8438Z" fill="#164070"/>
<path d="M143.865 19.6643C142.24 19.6643 141.049 19.2951 140.292 18.5565C139.535 17.818 139.156 16.6732 139.156 15.1222V9.05687H136.719V5.84416H139.267V1.66211H142.923V5.84416H146.524V9.05687H142.923V14.9561C142.923 15.473 143.015 15.8516 143.2 16.0916C143.403 16.3316 143.717 16.4516 144.142 16.4516H146.524V19.6643H143.865Z" fill="#164070"/>
<path d="M132.23 4.5421C131.51 4.5421 130.928 4.339 130.485 3.93279C130.06 3.50813 129.848 2.95421 129.848 2.27105C129.848 1.58789 130.06 1.04321 130.485 0.637002C130.928 0.212334 131.51 0 132.23 0C132.95 0 133.522 0.212334 133.947 0.637002C134.39 1.04321 134.612 1.58789 134.612 2.27105C134.612 2.95421 134.39 3.50813 133.947 3.93279C133.522 4.339 132.95 4.5421 132.23 4.5421ZM130.347 5.8438H134.113V19.664H130.347V5.8438Z" fill="#164070"/>
<path d="M126.416 19.6644C124.773 19.6644 123.564 19.3228 122.788 18.6396C122.031 17.938 121.653 16.8579 121.653 15.3992V0.277344H125.419V15.1776C125.419 15.6208 125.521 15.9439 125.724 16.147C125.927 16.3501 126.25 16.4517 126.693 16.4517H128.189V19.6644H126.416Z" fill="#164070"/>
<path d="M109.855 19.8854C108.415 19.8854 107.252 19.5253 106.366 18.8052C105.479 18.0851 105.036 17.1343 105.036 15.9526V14.9278C105.036 13.7646 105.498 12.8322 106.421 12.1306C107.344 11.4105 108.563 11.0504 110.077 11.0504H111.766C112.246 11.0504 112.763 11.1151 113.317 11.2443C113.871 11.3735 114.379 11.549 114.84 11.7705V10.3303C114.84 9.86875 114.683 9.49947 114.37 9.22252C114.074 8.9271 113.677 8.77938 113.179 8.77938H110.797C110.28 8.77938 109.864 8.8994 109.551 9.13943C109.237 9.37946 109.08 9.70258 109.08 10.1088H105.424C105.424 8.76092 105.913 7.68079 106.892 6.86838C107.889 6.03751 109.19 5.62207 110.797 5.62207H113.179C114.803 5.62207 116.114 6.05597 117.111 6.92377C118.109 7.7731 118.607 8.90863 118.607 10.3303V19.6638H115.117V18.0021C114.674 18.5744 114.13 19.036 113.483 19.3868C112.837 19.7192 112.2 19.8854 111.572 19.8854H109.855ZM111.849 17.005C112.532 17.005 113.142 16.8296 113.677 16.4788C114.213 16.128 114.6 15.6572 114.84 15.0663V14.5955C114.545 14.3739 114.13 14.1985 113.594 14.0693C113.077 13.94 112.523 13.8754 111.932 13.8754H110.188C109.744 13.8754 109.384 13.9862 109.107 14.2077C108.83 14.4293 108.692 14.7247 108.692 15.094V15.8141C108.692 16.1649 108.84 16.4511 109.135 16.6727C109.449 16.8942 109.855 17.005 110.354 17.005H111.849Z" fill="#164070"/>
<path d="M94.8405 19.8854C93.6772 19.8854 92.6433 19.673 91.7385 19.2484C90.8523 18.8052 90.1599 18.1959 89.6614 17.4205C89.1628 16.6265 88.9136 15.7218 88.9136 14.7063V11.1335C88.9136 10.0442 89.1628 9.08404 89.6614 8.25316C90.1599 7.42229 90.8523 6.77606 91.7385 6.31446C92.6433 5.85287 93.6772 5.62207 94.8405 5.62207H97.0561C98.8286 5.62207 100.25 6.12059 101.321 7.11764C102.392 8.11469 102.928 9.44408 102.928 11.1058V14.0416H92.6802V14.7063C92.6802 15.3156 92.8741 15.8049 93.2618 16.1741C93.6495 16.5434 94.1758 16.7281 94.8405 16.7281H97.0007C97.647 16.7281 98.1639 16.5896 98.5517 16.3126C98.9579 16.0172 99.161 15.6387 99.161 15.1771H102.872C102.872 16.1003 102.623 16.9219 102.124 17.642C101.626 18.3621 100.924 18.916 100.02 19.3038C99.1333 19.6915 98.1086 19.8854 96.9453 19.8854H94.8405ZM99.2164 11.3274V11.1058C99.2164 10.3857 99.0225 9.81336 98.6348 9.38869C98.247 8.94556 97.73 8.72399 97.0838 8.72399H94.8405C94.1758 8.72399 93.6403 8.95479 93.2341 9.41639C92.8279 9.87798 92.6248 10.4873 92.6248 11.2443V11.3274H99.2164Z" fill="#164070"/>
<path d="M70.8081 0.277344H81.1109C82.7911 0.277344 84.139 0.729708 85.1545 1.63444C86.1885 2.53916 86.7055 3.73008 86.7055 5.20718V7.14589C86.7055 8.106 86.4285 8.94611 85.8746 9.6662C85.3391 10.3678 84.5544 10.9033 83.5204 11.2726V11.3279C84.1113 11.7157 84.5544 12.1588 84.8498 12.6573C85.1637 13.1559 85.4684 13.8483 85.7638 14.7345L87.3148 19.6644H83.3543L81.8864 15.0669C81.6464 14.2729 81.314 13.6821 80.8893 13.2943C80.4647 12.9066 79.9385 12.7127 79.3107 12.7127H74.6301V19.6644H70.8081V0.277344ZM80.3908 9.41694C81.1663 9.41694 81.7756 9.21383 82.2187 8.80763C82.6619 8.38296 82.8834 7.83828 82.8834 7.17358V5.37336C82.8834 4.83791 82.7173 4.41324 82.3849 4.09936C82.0526 3.76701 81.6094 3.60083 81.0555 3.60083H74.6301V9.41694H80.3908Z" fill="#164070"/>
<path d="M50.9206 19.8854C49.4804 19.8854 48.3172 19.5253 47.431 18.8052C46.5447 18.0851 46.1016 17.1343 46.1016 15.9526V14.9278C46.1016 13.7646 46.5632 12.8322 47.4864 12.1306C48.4095 11.4105 49.6282 11.0504 51.1422 11.0504H52.8316C53.3117 11.0504 53.8287 11.1151 54.3826 11.2443C54.9365 11.3735 55.4443 11.549 55.9059 11.7705V10.3303C55.9059 9.86875 55.7489 9.49947 55.435 9.22252C55.1396 8.9271 54.7426 8.77938 54.2441 8.77938H51.8623C51.3453 8.77938 50.9299 8.8994 50.616 9.13943C50.3021 9.37946 50.1451 9.70258 50.1451 10.1088H46.4893C46.4893 8.76092 46.9786 7.68079 47.9572 6.86838C48.9542 6.03751 50.2559 5.62207 51.8623 5.62207H54.2441C55.8689 5.62207 57.1799 6.05597 58.1769 6.92377C59.174 7.7731 59.6725 8.90863 59.6725 10.3303V19.6638H56.1828V18.0021C55.7397 18.5744 55.195 19.036 54.5488 19.3868C53.9025 19.7192 53.2655 19.8854 52.6378 19.8854H50.9206ZM52.9147 17.005C53.5979 17.005 54.2072 16.8296 54.7426 16.4788C55.2781 16.128 55.6658 15.6572 55.9059 15.0663V14.5955C55.6104 14.3739 55.195 14.1985 54.6595 14.0693C54.1426 13.94 53.5886 13.8754 52.9978 13.8754H51.253C50.8098 13.8754 50.4498 13.9862 50.1728 14.2077C49.8959 14.4293 49.7574 14.7247 49.7574 15.094V15.8141C49.7574 16.1649 49.9051 16.4511 50.2005 16.6727C50.5144 16.8942 50.9206 17.005 51.4191 17.005H52.9147Z" fill="#164070"/>
<path d="M41.5474 19.6643C39.9225 19.6643 38.7316 19.2951 37.9746 18.5565C37.2176 17.818 36.8391 16.6732 36.8391 15.1222V9.05687H34.4019V5.84416H36.9499V1.66211H40.6057V5.84416H44.2061V9.05687H40.6057V14.9561C40.6057 15.473 40.698 15.8516 40.8827 16.0916C41.0858 16.3316 41.3996 16.4516 41.8243 16.4516H44.2061V19.6643H41.5474Z" fill="#164070"/>
<path d="M23.7116 19.8854C22.2715 19.8854 21.1082 19.5253 20.222 18.8052C19.3357 18.0851 18.8926 17.1343 18.8926 15.9526V14.9278C18.8926 13.7646 19.3542 12.8322 20.2774 12.1306C21.2006 11.4105 22.4192 11.0504 23.9332 11.0504H25.6226C26.1027 11.0504 26.6197 11.1151 27.1736 11.2443C27.7275 11.3735 28.2353 11.549 28.6969 11.7705V10.3303C28.6969 9.86875 28.5399 9.49947 28.226 9.22252C27.9306 8.9271 27.5336 8.77938 27.0351 8.77938H24.6533C24.1363 8.77938 23.7209 8.8994 23.407 9.13943C23.0931 9.37946 22.9362 9.70258 22.9362 10.1088H19.2803C19.2803 8.76092 19.7696 7.68079 20.7482 6.86838C21.7452 6.03751 23.0469 5.62207 24.6533 5.62207H27.0351C28.6599 5.62207 29.9709 6.05597 30.9679 6.92377C31.965 7.7731 32.4635 8.90863 32.4635 10.3303V19.6638H28.9738V18.0021C28.5307 18.5744 27.986 19.036 27.3398 19.3868C26.6935 19.7192 26.0565 19.8854 25.4288 19.8854H23.7116ZM25.7057 17.005C26.3889 17.005 26.9982 16.8296 27.5336 16.4788C28.0691 16.128 28.4568 15.6572 28.6969 15.0663V14.5955C28.4014 14.3739 27.986 14.1985 27.4506 14.0693C26.9336 13.94 26.3797 13.8754 25.7888 13.8754H24.044C23.6009 13.8754 23.2408 13.9862 22.9639 14.2077C22.6869 14.4293 22.5484 14.7247 22.5484 15.094V15.8141C22.5484 16.1649 22.6961 16.4511 22.9915 16.6727C23.3054 16.8942 23.7116 17.005 24.2102 17.005H25.7057Z" fill="#164070"/>
<path d="M2.68649 19.6644C1.89254 19.6644 1.24631 19.4243 0.747785 18.9443C0.249262 18.4642 0 17.8364 0 17.061V0.277344H9.25037C10.7275 0.277344 12.0199 0.554302 13.1278 1.10822C14.2541 1.66213 15.1219 2.44684 15.7312 3.46235C16.3589 4.47786 16.6728 5.65032 16.6728 6.97971V12.4081C16.6728 14.7899 16.0543 16.5994 14.8172 17.8364C13.5801 19.0551 11.7615 19.6644 9.36116 19.6644H2.68649ZM9.25037 16.2855C10.4321 16.2855 11.3276 15.9439 11.9369 15.2607C12.5462 14.5776 12.8508 13.5713 12.8508 12.2419V7.14589C12.8508 6.09345 12.5092 5.25335 11.8261 4.62557C11.1429 3.97934 10.2474 3.65622 9.13959 3.65622H3.82201V16.2855H9.25037Z" fill="#164070"/>
</svg>
